<?xml version="1.0" encoding="UTF-8"?>
<svg xmlns="http://www.w3.org/2000/svg" width="1368" height="768" viewBox="0 0 1368 768">
<style>
.bg{fill:#111722}.panel{fill:#141923}.toolbar{fill:#0d111a}.bar{fill:#0e131c}.line{stroke:#2b3446;stroke-width:1}.grid{stroke:#293143;stroke-width:1}.text{fill:#d9e3f7;font-family:Inter,Segoe UI,Arial,sans-serif}.muted{fill:#91a4c6}.blue{fill:#2f80ff}.green{fill:#12bfa4}.red{fill:#ff3d57}.yellow{fill:#d9e3f7}.tag{fill:#10c79b}.tag2{fill:#424b5d}.candleUp{fill:#12bfa4}.candleDown{fill:#ff3d57}.wickUp{stroke:#12bfa4;stroke-width:2}.wickDown{stroke:#ff3d57;stroke-width:2}.volUp{fill:#116f66;opacity:.85}.volDown{fill:#914250;opacity:.9}.mono{font-family:SFMono-Regular,Consolas,monospace}.bold{font-weight:800}.dash{stroke:#a4afc1;stroke-dasharray:5 7;opacity:.72}.dotline{stroke:#07d6ad;stroke-dasharray:1 4;opacity:.9}
</style>
<rect width="1368" height="768" fill="#070b14"/>
<rect class="bg" x="0" y="0" width="1368" height="768"/>
<rect class="toolbar" x="0" y="0" width="1368" height="42"/><line class="line" x1="0" y1="42" x2="1368" y2="42"/>
<rect class="bg" x="0" y="42" width="54" height="674"/><line class="line" x1="54" y1="42" x2="54" y2="716"/>
<rect class="panel" x="54" y="42" width="1254" height="674"/><rect class="bg" x="1308" y="42" width="60" height="674"/><line class="line" x1="1308" y1="42" x2="1308" y2="716"/>
<rect class="bar" x="0" y="716" width="1368" height="52"/><line class="line" x1="0" y1="716" x2="1368" y2="716"/>
<circle cx="22" cy="21" r="9" fill="none" stroke="#8d99ad"/><text class="text mono" x="18" y="25" font-size="14">+</text><line class="line" x1="58" y1="10" x2="58" y2="32"/><text class="blue mono" x="73" y="26" font-size="13">1s</text><text class="text mono" x="105" y="26" font-size="13">1m</text><text class="text mono" x="137" y="26" font-size="13">5m</text><text class="text mono" x="169" y="26" font-size="13">15m</text><text class="text mono" x="209" y="26" font-size="13">1h</text><text class="text mono" x="241" y="26" font-size="13">4h</text><text class="text mono" x="273" y="26" font-size="13">D</text><text class="text mono" x="297" y="26" font-size="13">⌄</text><line class="line" x1="321" y1="10" x2="321" y2="32"/><text class="text mono" x="336" y="26" font-size="13">〽</text><text class="blue mono" x="360" y="26" font-size="13">▯▯</text><text class="text mono" x="392" y="26" font-size="13">⌄</text><line class="line" x1="416" y1="10" x2="416" y2="32"/><text class="text mono" x="431" y="26" font-size="13">ƒx</text><text class="text mono" x="463" y="26" font-size="13">Indicators</text><line class="line" x1="559" y1="10" x2="559" y2="32"/><text class="blue mono" x="574" y="26" font-size="13">Price / MCap</text><text class="blue mono" x="686" y="26" font-size="13">USD / SOL</text><text class="text mono" x="774" y="26" font-size="13">⛶ Full</text><text class="text mono" x="838" y="26" font-size="13">↶</text><text class="text mono" x="862" y="26" font-size="13">↷</text><text class="muted" x="1264" y="26" font-size="17">◔</text><text class="muted" x="1304" y="26" font-size="17">⚙</text><text class="muted" x="1344" y="26" font-size="17">▣</text><line x1="18" y1="70" x2="42" y2="70" stroke="#3f7dff"/><line x1="30" y1="58" x2="30" y2="82" stroke="#3f7dff"/><rect x="20" y="96" width="20" height="20" rx="2" fill="none" stroke="#9aa8bd" opacity=".75"/><rect x="20" y="133" width="20" height="20" rx="2" fill="none" stroke="#9aa8bd" opacity=".75"/><rect x="20" y="170" width="20" height="20" rx="2" fill="none" stroke="#9aa8bd" opacity=".75"/><rect x="20" y="207" width="20" height="20" rx="2" fill="none" stroke="#9aa8bd" opacity=".75"/><rect x="20" y="244" width="20" height="20" rx="2" fill="none" stroke="#9aa8bd" opacity=".75"/><rect x="20" y="281" width="20" height="20" rx="2" fill="none" stroke="#9aa8bd" opacity=".75"/><rect x="20" y="318" width="20" height="20" rx="2" fill="none" stroke="#9aa8bd" opacity=".75"/><rect x="20" y="355" width="20" height="20" rx="2" fill="none" stroke="#9aa8bd" opacity=".75"/><rect x="20" y="392" width="20" height="20" rx="2" fill="none" stroke="#9aa8bd" opacity=".75"/><rect x="20" y="429" width="20" height="20" rx="2" fill="none" stroke="#9aa8bd" opacity=".75"/><rect x="20" y="466" width="20" height="20" rx="2" fill="none" stroke="#9aa8bd" opacity=".75"/><rect x="20" y="503" width="20" height="20" rx="2" fill="none" stroke="#9aa8bd" opacity=".75"/><rect x="20" y="540" width="20" height="20" rx="2" fill="none" stroke="#9aa8bd" opacity=".75"/><rect x="20" y="577" width="20" height="20" rx="2" fill="none" stroke="#9aa8bd" opacity=".75"/><text class="text" x="68" y="66" font-size="14">● TOKEN / SOL <tspan class="bold">(Market Cap)</tspan> on HumbleCurve · 1s · devnet</text><text class="green mono" x="582" y="66" font-size="12">O 160.88K  H 161.94K  L 161.94K  C 184.34K  1,058.96 (+0.66%)</text><text class="text" x="70" y="88" font-size="13">Volume <tspan class="green bold">7</tspan></text><line class="grid" x1="54" y1="108" x2="1308" y2="108"/><line class="grid" x1="54" y1="172" x2="1308" y2="172"/><line class="grid" x1="54" y1="235" x2="1308" y2="235"/><line class="grid" x1="54" y1="299" x2="1308" y2="299"/><line class="grid" x1="54" y1="362" x2="1308" y2="362"/><line class="grid" x1="54" y1="426" x2="1308" y2="426"/><line class="grid" x1="54" y1="490" x2="1308" y2="490"/><line class="grid" x1="54" y1="553" x2="1308" y2="553"/><line class="grid" x1="54" y1="617" x2="1308" y2="617"/><line class="grid" x1="54" y1="650" x2="1308" y2="650"/><line class="grid" x1="148" y1="42" x2="148" y2="716"/><line class="grid" x1="242" y1="42" x2="242" y2="716"/><line class="grid" x1="336" y1="42" x2="336" y2="716"/><line class="grid" x1="430" y1="42" x2="430" y2="716"/><line class="grid" x1="524" y1="42" x2="524" y2="716"/><line class="grid" x1="618" y1="42" x2="618" y2="716"/><line class="grid" x1="712" y1="42" x2="712" y2="716"/><line class="grid" x1="806" y1="42" x2="806" y2="716"/><line class="grid" x1="900" y1="42" x2="900" y2="716"/><line class="grid" x1="994" y1="42" x2="994" y2="716"/><line class="grid" x1="1088" y1="42" x2="1088" y2="716"/><line class="grid" x1="1182" y1="42" x2="1182" y2="716"/><line class="grid" x1="1276" y1="42" x2="1276" y2="716"/><path d="M70 390 C170 330 210 360 282 395 S415 405 485 350 S575 315 665 325 S775 392 860 340 S954 295 1034 250 S1118 112 1284 138" fill="none" stroke="#12c79f" stroke-width="1.2" opacity=".75"/><line class="dotline" x1="54" y1="146" x2="1308" y2="146"/><line class="dash" x1="346" y1="42" x2="346" y2="716"/><line class="dash" x1="54" y1="413" x2="1308" y2="413"/><line class="wickUp" x1="74" y1="369.3" x2="74" y2="388.8"/><rect class="candleUp" x="70" y="379.0" width="8" height="3.0" rx="1"/><rect class="volUp" x="70" y="650" width="8" height="0"/><line class="wickUp" x1="89" y1="320.5" x2="89" y2="398.5"/><rect class="candleUp" x="85" y="359.5" width="8" height="19.5" rx="1"/><rect class="volUp" x="85" y="627" width="8" height="23"/><line class="wickDown" x1="104" y1="330.3" x2="104" y2="427.8"/><rect class="candleDown" x="100" y="359.5" width="8" height="39.0" rx="1"/><rect class="volDown" x="100" y="604" width="8" height="46"/><line class="wickUp" x1="119" y1="330.3" x2="119" y2="437.5"/><rect class="candleUp" x="115" y="349.8" width="8" height="48.8" rx="1"/><rect class="volUp" x="115" y="586" width="8" height="64"/><line class="wickUp" x1="134" y1="330.3" x2="134" y2="359.5"/><rect class="candleUp" x="130" y="340.0" width="8" height="9.8" rx="1"/><rect class="volUp" x="130" y="593" width="8" height="57"/><line class="wickUp" x1="149" y1="281.5" x2="149" y2="359.5"/><rect class="candleUp" x="145" y="320.5" width="8" height="19.5" rx="1"/><rect class="volUp" x="145" y="633" width="8" height="17"/><line class="wickDown" x1="164" y1="291.3" x2="164" y2="388.8"/><rect class="candleDown" x="160" y="320.5" width="8" height="39.0" rx="1"/><rect class="volDown" x="160" y="610" width="8" height="40"/><line class="wickUp" x1="179" y1="310.8" x2="179" y2="398.5"/><rect class="candleUp" x="175" y="330.3" width="8" height="29.3" rx="1"/><rect class="volUp" x="175" y="602" width="8" height="48"/><line class="wickUp" x1="194" y1="301.0" x2="194" y2="340.0"/><rect class="candleUp" x="190" y="310.8" width="8" height="19.5" rx="1"/><rect class="volUp" x="190" y="594" width="8" height="56"/><line class="wickUp" x1="209" y1="213.3" x2="209" y2="330.3"/><rect class="candleUp" x="205" y="252.3" width="8" height="58.5" rx="1"/><rect class="volUp" x="205" y="619" width="8" height="31"/><line class="wickUp" x1="224" y1="184.0" x2="224" y2="281.5"/><rect class="candleUp" x="220" y="213.3" width="8" height="39.0" rx="1"/><rect class="volUp" x="220" y="616" width="8" height="34"/><line class="wickDown" x1="239" y1="193.8" x2="239" y2="369.3"/><rect class="candleDown" x="235" y="213.3" width="8" height="117.0" rx="1"/><rect class="volDown" x="235" y="563" width="8" height="87"/><line class="wickUp" x1="254" y1="281.5" x2="254" y2="340.0"/><rect class="candleUp" x="250" y="291.3" width="8" height="39.0" rx="1"/><rect class="volUp" x="250" y="590" width="8" height="60"/><line class="wickDown" x1="269" y1="252.3" x2="269" y2="359.5"/><rect class="candleDown" x="265" y="291.3" width="8" height="48.8" rx="1"/><rect class="volDown" x="265" y="572" width="8" height="78"/><line class="wickDown" x1="284" y1="310.8" x2="284" y2="447.3"/><rect class="candleDown" x="280" y="340.0" width="8" height="78.0" rx="1"/><rect class="volDown" x="280" y="602" width="8" height="48"/><line class="wickUp" x1="299" y1="388.8" x2="299" y2="457.0"/><rect class="candleUp" x="295" y="408.3" width="8" height="9.8" rx="1"/><rect class="volUp" x="295" y="624" width="8" height="26"/><line class="wickUp" x1="314" y1="388.8" x2="314" y2="418.0"/><rect class="candleUp" x="310" y="398.5" width="8" height="9.8" rx="1"/><rect class="volUp" x="310" y="611" width="8" height="39"/><line class="wickDown" x1="329" y1="359.5" x2="329" y2="437.5"/><rect class="candleDown" x="325" y="398.5" width="8" height="19.5" rx="1"/><rect class="volDown" x="325" y="593" width="8" height="57"/><line class="wickUp" x1="344" y1="359.5" x2="344" y2="447.3"/><rect class="candleUp" x="340" y="388.8" width="8" height="29.3" rx="1"/><rect class="volUp" x="340" y="633" width="8" height="17"/><line class="wickDown" x1="359" y1="369.3" x2="359" y2="622.8"/><rect class="candleDown" x="355" y="388.8" width="8" height="195.0" rx="1"/><rect class="volDown" x="355" y="535" width="8" height="115"/><line class="wickDown" x1="374" y1="574.0" x2="374" y2="613.0"/><rect class="candleDown" x="370" y="583.8" width="8" height="19.5" rx="1"/><rect class="volDown" x="370" y="612" width="8" height="38"/><line class="wickUp" x1="389" y1="535.0" x2="389" y2="622.8"/><rect class="candleUp" x="385" y="574.0" width="8" height="29.3" rx="1"/><rect class="volUp" x="385" y="594" width="8" height="56"/><line class="wickUp" x1="404" y1="525.3" x2="404" y2="603.3"/><rect class="candleUp" x="400" y="554.5" width="8" height="19.5" rx="1"/><rect class="volUp" x="400" y="586" width="8" height="64"/><line class="wickDown" x1="419" y1="535.0" x2="419" y2="632.5"/><rect class="candleDown" x="415" y="554.5" width="8" height="39.0" rx="1"/><rect class="volDown" x="415" y="621" width="8" height="29"/><line class="wickDown" x1="434" y1="583.8" x2="434" y2="613.0"/><rect class="candleDown" x="430" y="593.5" width="8" height="9.8" rx="1"/><rect class="volDown" x="430" y="623" width="8" height="27"/><line class="wickUp" x1="449" y1="525.3" x2="449" y2="622.8"/><rect class="candleUp" x="445" y="564.3" width="8" height="39.0" rx="1"/><rect class="volUp" x="445" y="595" width="8" height="55"/><line class="wickUp" x1="464" y1="505.8" x2="464" y2="593.5"/><rect class="candleUp" x="460" y="535.0" width="8" height="29.3" rx="1"/><rect class="volUp" x="460" y="587" width="8" height="63"/><line class="wickDown" x1="479" y1="515.5" x2="479" y2="622.8"/><rect class="candleDown" x="475" y="535.0" width="8" height="48.8" rx="1"/><rect class="volDown" x="475" y="622" width="8" height="28"/><line class="wickUp" x1="494" y1="515.5" x2="494" y2="593.5"/><rect class="candleUp" x="490" y="525.3" width="8" height="58.5" rx="1"/><rect class="volUp" x="490" y="604" width="8" height="46"/><line class="wickUp" x1="509" y1="466.8" x2="509" y2="544.8"/><rect class="candleUp" x="505" y="505.8" width="8" height="19.5" rx="1"/><rect class="volUp" x="505" y="611" width="8" height="39"/><line class="wickUp" x1="524" y1="447.3" x2="524" y2="535.0"/><rect class="candleUp" x="520" y="476.5" width="8" height="29.3" rx="1"/><rect class="volUp" x="520" y="593" width="8" height="57"/><line class="wickDown" x1="539" y1="457.0" x2="539" y2="554.5"/><rect class="candleDown" x="535" y="476.5" width="8" height="39.0" rx="1"/><rect class="volDown" x="535" y="575" width="8" height="75"/><line class="wickDown" x1="554" y1="505.8" x2="554" y2="554.5"/><rect class="candleDown" x="550" y="515.5" width="8" height="29.3" rx="1"/><rect class="volDown" x="550" y="625" width="8" height="25"/><line class="wickDown" x1="569" y1="505.8" x2="569" y2="593.5"/><rect class="candleDown" x="565" y="544.8" width="8" height="29.3" rx="1"/><rect class="volDown" x="565" y="612" width="8" height="38"/><line class="wickUp" x1="584" y1="388.8" x2="584" y2="603.3"/><rect class="candleUp" x="580" y="418.0" width="8" height="156.0" rx="1"/><rect class="volUp" x="580" y="534" width="8" height="116"/><line class="wickUp" x1="599" y1="379.0" x2="599" y2="457.0"/><rect class="candleUp" x="595" y="398.5" width="8" height="19.5" rx="1"/><rect class="volUp" x="595" y="591" width="8" height="59"/><line class="wickUp" x1="614" y1="359.5" x2="614" y2="408.3"/><rect class="candleUp" x="610" y="369.3" width="8" height="29.3" rx="1"/><rect class="volUp" x="610" y="631" width="8" height="19"/><line class="wickUp" x1="629" y1="281.5" x2="629" y2="388.8"/><rect class="candleUp" x="625" y="320.5" width="8" height="48.8" rx="1"/><rect class="volUp" x="625" y="608" width="8" height="42"/><line class="wickDown" x1="644" y1="291.3" x2="644" y2="369.3"/><rect class="candleDown" x="640" y="320.5" width="8" height="19.5" rx="1"/><rect class="volDown" x="640" y="610" width="8" height="40"/><line class="wickDown" x1="659" y1="320.5" x2="659" y2="418.0"/><rect class="candleDown" x="655" y="340.0" width="8" height="39.0" rx="1"/><rect class="volDown" x="655" y="587" width="8" height="63"/><line class="wickUp" x1="674" y1="320.5" x2="674" y2="388.8"/><rect class="candleUp" x="670" y="330.3" width="8" height="48.8" rx="1"/><rect class="volUp" x="670" y="569" width="8" height="81"/><line class="wickUp" x1="689" y1="281.5" x2="689" y2="349.8"/><rect class="candleUp" x="685" y="320.5" width="8" height="9.8" rx="1"/><rect class="volUp" x="685" y="634" width="8" height="16"/><line class="wickDown" x1="704" y1="291.3" x2="704" y2="379.0"/><rect class="candleDown" x="700" y="320.5" width="8" height="29.3" rx="1"/><rect class="volDown" x="700" y="611" width="8" height="39"/><line class="wickDown" x1="719" y1="330.3" x2="719" y2="447.3"/><rect class="candleDown" x="715" y="349.8" width="8" height="58.5" rx="1"/><rect class="volDown" x="715" y="583" width="8" height="67"/><line class="wickUp" x1="734" y1="320.5" x2="734" y2="418.0"/><rect class="candleUp" x="730" y="330.3" width="8" height="78.0" rx="1"/><rect class="volUp" x="730" y="560" width="8" height="90"/><line class="wickUp" x1="749" y1="281.5" x2="749" y2="349.8"/><rect class="candleUp" x="745" y="320.5" width="8" height="9.8" rx="1"/><rect class="volUp" x="745" y="640" width="8" height="10"/><line class="wickDown" x1="764" y1="291.3" x2="764" y2="388.8"/><rect class="candleDown" x="760" y="320.5" width="8" height="39.0" rx="1"/><rect class="volDown" x="760" y="612" width="8" height="38"/><line class="wickUp" x1="779" y1="320.5" x2="779" y2="398.5"/><rect class="candleUp" x="775" y="340.0" width="8" height="19.5" rx="1"/><rect class="volUp" x="775" y="609" width="8" height="41"/><line class="wickDown" x1="794" y1="330.3" x2="794" y2="388.8"/><rect class="candleDown" x="790" y="340.0" width="8" height="39.0" rx="1"/><rect class="volDown" x="790" y="586" width="8" height="64"/><line class="wickDown" x1="809" y1="340.0" x2="809" y2="554.5"/><rect class="candleDown" x="805" y="379.0" width="8" height="156.0" rx="1"/><rect class="volDown" x="805" y="513" width="8" height="137"/><line class="wickUp" x1="824" y1="418.0" x2="824" y2="564.3"/><rect class="candleUp" x="820" y="447.3" width="8" height="87.8" rx="1"/><rect class="volUp" x="820" y="593" width="8" height="57"/><line class="wickDown" x1="839" y1="427.8" x2="839" y2="525.3"/><rect class="candleDown" x="835" y="447.3" width="8" height="39.0" rx="1"/><rect class="volDown" x="835" y="605" width="8" height="45"/><line class="wickUp" x1="854" y1="457.0" x2="854" y2="496.0"/><rect class="candleUp" x="850" y="466.8" width="8" height="19.5" rx="1"/><rect class="volUp" x="850" y="602" width="8" height="48"/><line class="wickUp" x1="869" y1="418.0" x2="869" y2="486.3"/><rect class="candleUp" x="865" y="457.0" width="8" height="9.8" rx="1"/><rect class="volUp" x="865" y="594" width="8" height="56"/><line class="wickDown" x1="884" y1="427.8" x2="884" y2="505.8"/><rect class="candleDown" x="880" y="457.0" width="8" height="19.5" rx="1"/><rect class="volDown" x="880" y="634" width="8" height="16"/><line class="wickUp" x1="899" y1="418.0" x2="899" y2="515.5"/><rect class="candleUp" x="895" y="437.5" width="8" height="39.0" rx="1"/><rect class="volUp" x="895" y="611" width="8" height="39"/><line class="wickUp" x1="914" y1="408.3" x2="914" y2="447.3"/><rect class="candleUp" x="910" y="418.0" width="8" height="19.5" rx="1"/><rect class="volUp" x="910" y="608" width="8" height="42"/><line class="wickUp" x1="929" y1="252.3" x2="929" y2="437.5"/><rect class="candleUp" x="925" y="291.3" width="8" height="126.8" rx="1"/><rect class="volUp" x="925" y="540" width="8" height="110"/><line class="wickDown" x1="944" y1="262.0" x2="944" y2="388.8"/><rect class="candleDown" x="940" y="291.3" width="8" height="68.3" rx="1"/><rect class="volDown" x="940" y="615" width="8" height="35"/><line class="wickUp" x1="959" y1="310.8" x2="959" y2="398.5"/><rect class="candleUp" x="955" y="330.3" width="8" height="29.3" rx="1"/><rect class="volUp" x="955" y="622" width="8" height="28"/><line class="wickDown" x1="974" y1="320.5" x2="974" y2="379.0"/><rect class="candleDown" x="970" y="330.3" width="8" height="39.0" rx="1"/><rect class="volDown" x="970" y="604" width="8" height="46"/><line class="wickUp" x1="989" y1="301.0" x2="989" y2="388.8"/><rect class="candleUp" x="985" y="340.0" width="8" height="29.3" rx="1"/><rect class="volUp" x="985" y="596" width="8" height="54"/><line class="wickUp" x1="1004" y1="310.8" x2="1004" y2="369.3"/><rect class="candleUp" x="1000" y="340.0" width="8" height="3.0" rx="1"/><rect class="volUp" x="1000" y="598" width="8" height="52"/><line class="wickDown" x1="1019" y1="320.5" x2="1019" y2="437.5"/><rect class="candleDown" x="1015" y="340.0" width="8" height="58.5" rx="1"/><rect class="volDown" x="1015" y="613" width="8" height="37"/><line class="wickUp" x1="1034" y1="301.0" x2="1034" y2="408.3"/><rect class="candleUp" x="1030" y="310.8" width="8" height="87.8" rx="1"/><rect class="volUp" x="1030" y="585" width="8" height="65"/><line class="wickUp" x1="1049" y1="242.5" x2="1049" y2="330.3"/><rect class="candleUp" x="1045" y="281.5" width="8" height="29.3" rx="1"/><rect class="volUp" x="1045" y="602" width="8" height="48"/><line class="wickUp" x1="1064" y1="164.5" x2="1064" y2="310.8"/><rect class="candleUp" x="1060" y="193.8" width="8" height="87.8" rx="1"/><rect class="volUp" x="1060" y="559" width="8" height="91"/><line class="wickDown" x1="1079" y1="174.3" x2="1079" y2="320.5"/><rect class="candleDown" x="1075" y="193.8" width="8" height="87.8" rx="1"/><rect class="volDown" x="1075" y="604" width="8" height="46"/><line class="wickUp" x1="1094" y1="154.8" x2="1094" y2="291.3"/><rect class="candleUp" x="1090" y="164.5" width="8" height="117.0" rx="1"/><rect class="volUp" x="1090" y="576" width="8" height="74"/><line class="wickDown" x1="1109" y1="125.5" x2="1109" y2="232.8"/><rect class="candleDown" x="1105" y="164.5" width="8" height="48.8" rx="1"/><rect class="volDown" x="1105" y="598" width="8" height="52"/><line class="wickDown" x1="1124" y1="184.0" x2="1124" y2="291.3"/><rect class="candleDown" x="1120" y="213.3" width="8" height="48.8" rx="1"/><rect class="volDown" x="1120" y="585" width="8" height="65"/><line class="wickUp" x1="1139" y1="154.8" x2="1139" y2="301.0"/><rect class="candleUp" x="1135" y="174.3" width="8" height="87.8" rx="1"/><rect class="volUp" x="1135" y="552" width="8" height="98"/><line class="wickDown" x1="1154" y1="164.5" x2="1154" y2="310.8"/><rect class="candleDown" x="1150" y="174.3" width="8" height="126.8" rx="1"/><rect class="volDown" x="1150" y="577" width="8" height="73"/><line class="wickUp" x1="1169" y1="213.3" x2="1169" y2="320.5"/><rect class="candleUp" x="1165" y="252.3" width="8" height="48.8" rx="1"/><rect class="volUp" x="1165" y="604" width="8" height="46"/><line class="wickUp" x1="1184" y1="115.8" x2="1184" y2="281.5"/><rect class="candleUp" x="1180" y="145.0" width="8" height="107.3" rx="1"/><rect class="volUp" x="1180" y="561" width="8" height="89"/><line class="wickDown" x1="1199" y1="125.5" x2="1199" y2="281.5"/><rect class="candleDown" x="1195" y="145.0" width="8" height="97.5" rx="1"/><rect class="volDown" x="1195" y="553" width="8" height="97"/><line class="wickUp" x1="1214" y1="203.5" x2="1214" y2="252.3"/><rect class="candleUp" x="1210" y="213.3" width="8" height="29.3" rx="1"/><rect class="volUp" x="1210" y="633" width="8" height="17"/><line class="wickUp" x1="1229" y1="145.0" x2="1229" y2="232.8"/><rect class="candleUp" x="1225" y="184.0" width="8" height="29.3" rx="1"/><rect class="volUp" x="1225" y="620" width="8" height="30"/><line class="wickUp" x1="1244" y1="135.3" x2="1244" y2="213.3"/><rect class="candleUp" x="1240" y="164.5" width="8" height="19.5" rx="1"/><rect class="volUp" x="1240" y="612" width="8" height="38"/><line class="wickDown" x1="1259" y1="145.0" x2="1259" y2="232.8"/><rect class="candleDown" x="1255" y="164.5" width="8" height="29.3" rx="1"/><rect class="volDown" x="1255" y="594" width="8" height="56"/><line class="wickUp" x1="1274" y1="164.5" x2="1274" y2="203.5"/><rect class="candleUp" x="1270" y="174.3" width="8" height="19.5" rx="1"/><rect class="volUp" x="1270" y="586" width="8" height="64"/><text class="text mono" x="1316" y="66" font-size="13">192.00K</text><text class="text mono" x="1316" y="109" font-size="13">188.00K</text><text class="text mono" x="1316" y="151" font-size="13">184.00K</text><text class="text mono" x="1316" y="195" font-size="13">180.00K</text><text class="text mono" x="1316" y="238" font-size="13">176.00K</text><text class="text mono" x="1316" y="282" font-size="13">172.00K</text><text class="text mono" x="1316" y="325" font-size="13">168.00K</text><text class="text mono" x="1316" y="368" font-size="13">164.00K</text><text class="text mono" x="1316" y="412" font-size="13">160.00K</text><text class="text mono" x="1316" y="455" font-size="13">156.00K</text><text class="text mono" x="1316" y="498" font-size="13">152.00K</text><text class="text mono" x="1316" y="542" font-size="13">148.00K</text><text class="text mono" x="1316" y="585" font-size="13">144.00K</text><text class="text mono" x="1316" y="628" font-size="13">140.00K</text><text class="text mono" x="1316" y="660" font-size="13">136.00K</text><rect class="tag" x="1308" y="134" width="60" height="26"/><text class="text bold" x="1317" y="152" font-size="14">184.34K</text><rect class="tag2" x="1308" y="401" width="60" height="26"/><text class="text bold" x="1317" y="419" font-size="14">159.27K</text><text class="text mono" x="98" y="708" font-size="12" text-anchor="middle">00:21</text><text class="text mono" x="190" y="708" font-size="12" text-anchor="middle">00:21:16</text><text class="text mono" x="308" y="708" font-size="12" text-anchor="middle">19 May '26</text><text class="text mono" x="452" y="708" font-size="12" text-anchor="middle">00:22</text><text class="text mono" x="545" y="708" font-size="12" text-anchor="middle">00:22:16</text><text class="text mono" x="638" y="708" font-size="12" text-anchor="middle">00:22:32</text><text class="text mono" x="788" y="708" font-size="12" text-anchor="middle">00:23</text><text class="text mono" x="872" y="708" font-size="12" text-anchor="middle">00:23:18</text><text class="text mono" x="1030" y="708" font-size="12" text-anchor="middle">00:24</text><text class="text mono" x="1124" y="708" font-size="12" text-anchor="middle">00:24:16</text><text class="text mono" x="1218" y="708" font-size="12" text-anchor="middle">00:24:33</text><rect class="tag2" x="270" y="690" width="152" height="27"/><text class="text mono" x="285" y="708" font-size="12">19 May '26 00:21:41</text><rect x="68" y="648" width="34" height="34" rx="8" fill="#0d111a" stroke="#2d374a"/><text class="text bold" x="77" y="671" font-size="20">ᵀᵛ</text><text class="text bold" x="34" y="748" font-size="14">☰ Transactions</text><text class="muted bold" x="146" y="748" font-size="14">♛ Top Traders</text><text class="muted bold" x="270" y="748" font-size="14">🎙 KOLs</text><text class="muted bold" x="374" y="748" font-size="14">◆ Holders (848)</text><text class="muted bold" x="506" y="748" font-size="14">〽 Bubblemaps</text><text class="text" x="1152" y="744" font-size="14">00:24:48 (UTC+1)</text><text class="text" x="1284" y="744" font-size="14">%  log</text><text class="blue bold" x="1342" y="744" font-size="14">auto</text></svg>